<svg width="28" height="28" viewBox="0 0 28 28" fill="none" xmlns="http://www.w3.org/2000/svg">
<g id="Action">
<path id="Vector" fill-rule="evenodd" clip-rule="evenodd" d="M13.1753 2.67517C13.3941 2.45646 13.6908 2.33359 14.0002 2.33359C14.3095 2.33359 14.6062 2.45646 14.825 2.67517L19.4917 7.34184C19.7042 7.56187 19.8218 7.85658 19.8191 8.16247C19.8165 8.46837 19.6938 8.76098 19.4775 8.97729C19.2611 9.1936 18.9685 9.3163 18.6626 9.31896C18.3567 9.32162 18.062 9.20402 17.842 8.99151L15.1668 6.31634V17.5C15.1668 17.8094 15.0439 18.1062 14.8251 18.325C14.6063 18.5438 14.3096 18.6667 14.0002 18.6667C13.6907 18.6667 13.394 18.5438 13.1752 18.325C12.9564 18.1062 12.8335 17.8094 12.8335 17.5V6.31634L10.1583 8.99151C9.93829 9.20402 9.64359 9.32162 9.3377 9.31896C9.0318 9.3163 8.73918 9.1936 8.52287 8.97729C8.30657 8.76098 8.18387 8.46837 8.18121 8.16247C8.17855 7.85658 8.29615 7.56187 8.50866 7.34184L13.1753 2.67517V2.67517ZM5.8335 15.1667C5.8335 14.2384 6.20225 13.3482 6.85862 12.6918C7.515 12.0354 8.40524 11.6667 9.3335 11.6667H10.5002C10.8096 11.6667 11.1063 11.7896 11.3251 12.0084C11.5439 12.2272 11.6668 12.5239 11.6668 12.8333C11.6668 13.1428 11.5439 13.4395 11.3251 13.6583C11.1063 13.8771 10.8096 14 10.5002 14H9.3335C9.02408 14 8.72733 14.1229 8.50854 14.3417C8.28975 14.5605 8.16683 14.8573 8.16683 15.1667V22.1667C8.16683 22.4761 8.28975 22.7728 8.50854 22.9916C8.72733 23.2104 9.02408 23.3333 9.3335 23.3333H18.6668C18.9763 23.3333 19.273 23.2104 19.4918 22.9916C19.7106 22.7728 19.8335 22.4761 19.8335 22.1667V15.1667C19.8335 14.8573 19.7106 14.5605 19.4918 14.3417C19.273 14.1229 18.9763 14 18.6668 14H17.5002C17.1907 14 16.894 13.8771 16.6752 13.6583C16.4564 13.4395 16.3335 13.1428 16.3335 12.8333C16.3335 12.5239 16.4564 12.2272 16.6752 12.0084C16.894 11.7896 17.1907 11.6667 17.5002 11.6667H18.6668C19.5951 11.6667 20.4853 12.0354 21.1417 12.6918C21.7981 13.3482 22.1668 14.2384 22.1668 15.1667V22.1667C22.1668 23.0949 21.7981 23.9852 21.1417 24.6415C20.4853 25.2979 19.5951 25.6667 18.6668 25.6667H9.3335C8.40524 25.6667 7.515 25.2979 6.85862 24.6415C6.20225 23.9852 5.8335 23.0949 5.8335 22.1667V15.1667Z" fill="#BF5FE1"/>
</g>
</svg>
