<svg width="24" height="24" viewBox="0 0 24 24" fill="none" xmlns="http://www.w3.org/2000/svg">
<g id="Calendar">
<path id="Vector" fill-rule="evenodd" clip-rule="evenodd" d="M4 3C4.26522 3 4.51957 3.10536 4.70711 3.29289C4.89464 3.48043 5 3.73478 5 4V5H7V4C7 3.73478 7.10536 3.48043 7.29289 3.29289C7.48043 3.10536 7.73478 3 8 3C8.26522 3 8.51957 3.10536 8.70711 3.29289C8.89464 3.48043 9 3.73478 9 4V5H11V4C11 3.73478 11.1054 3.48043 11.2929 3.29289C11.4804 3.10536 11.7348 3 12 3C12.2652 3 12.5196 3.10536 12.7071 3.29289C12.8946 3.48043 13 3.73478 13 4V5H15V4C15 3.73478 15.1054 3.48043 15.2929 3.29289C15.4804 3.10536 15.7348 3 16 3C16.2652 3 16.5196 3.10536 16.7071 3.29289C16.8946 3.48043 17 3.73478 17 4V5H19V4C19 3.73478 19.1054 3.48043 19.2929 3.29289C19.4804 3.10536 19.7348 3 20 3C20.2652 3 20.5196 3.10536 20.7071 3.29289C20.8946 3.48043 21 3.73478 21 4V18C21 18.7956 20.6839 19.5587 20.1213 20.1213C19.5587 20.6839 18.7956 21 18 21H6C5.20435 21 4.44129 20.6839 3.87868 20.1213C3.31607 19.5587 3 18.7956 3 18V4C3 3.73478 3.10536 3.48043 3.29289 3.29289C3.48043 3.10536 3.73478 3 4 3ZM19 7H5V18C5 18.2652 5.10536 18.5196 5.29289 18.7071C5.48043 18.8946 5.73478 19 6 19H18C18.2652 19 18.5196 18.8946 18.7071 18.7071C18.8946 18.5196 19 18.2652 19 18V7ZM13 10C13 10.2652 12.8946 10.5196 12.7071 10.7071C12.5196 10.8946 12.2652 11 12 11C11.7348 11 11.4804 10.8946 11.2929 10.7071C11.1054 10.5196 11 10.2652 11 10C11 9.73478 11.1054 9.48043 11.2929 9.29289C11.4804 9.10536 11.7348 9 12 9C12.2652 9 12.5196 9.10536 12.7071 9.29289C12.8946 9.48043 13 9.73478 13 10ZM16 11C16.2652 11 16.5196 10.8946 16.7071 10.7071C16.8946 10.5196 17 10.2652 17 10C17 9.73478 16.8946 9.48043 16.7071 9.29289C16.5196 9.10536 16.2652 9 16 9C15.7348 9 15.4804 9.10536 15.2929 9.29289C15.1054 9.48043 15 9.73478 15 10C15 10.2652 15.1054 10.5196 15.2929 10.7071C15.4804 10.8946 15.7348 11 16 11ZM9 13C9 13.2652 8.89464 13.5196 8.70711 13.7071C8.51957 13.8946 8.26522 14 8 14C7.73478 14 7.48043 13.8946 7.29289 13.7071C7.10536 13.5196 7 13.2652 7 13C7 12.7348 7.10536 12.4804 7.29289 12.2929C7.48043 12.1054 7.73478 12 8 12C8.26522 12 8.51957 12.1054 8.70711 12.2929C8.89464 12.4804 9 12.7348 9 13ZM12 14C12.2652 14 12.5196 13.8946 12.7071 13.7071C12.8946 13.5196 13 13.2652 13 13C13 12.7348 12.8946 12.4804 12.7071 12.2929C12.5196 12.1054 12.2652 12 12 12C11.7348 12 11.4804 12.1054 11.2929 12.2929C11.1054 12.4804 11 12.7348 11 13C11 13.2652 11.1054 13.5196 11.2929 13.7071C11.4804 13.8946 11.7348 14 12 14ZM17 13C17 13.2652 16.8946 13.5196 16.7071 13.7071C16.5196 13.8946 16.2652 14 16 14C15.7348 14 15.4804 13.8946 15.2929 13.7071C15.1054 13.5196 15 13.2652 15 13C15 12.7348 15.1054 12.4804 15.2929 12.2929C15.4804 12.1054 15.7348 12 16 12C16.2652 12 16.5196 12.1054 16.7071 12.2929C16.8946 12.4804 17 12.7348 17 13ZM8 17C8.26522 17 8.51957 16.8946 8.70711 16.7071C8.89464 16.5196 9 16.2652 9 16C9 15.7348 8.89464 15.4804 8.70711 15.2929C8.51957 15.1054 8.26522 15 8 15C7.73478 15 7.48043 15.1054 7.29289 15.2929C7.10536 15.4804 7 15.7348 7 16C7 16.2652 7.10536 16.5196 7.29289 16.7071C7.48043 16.8946 7.73478 17 8 17ZM13 16C13 16.2652 12.8946 16.5196 12.7071 16.7071C12.5196 16.8946 12.2652 17 12 17C11.7348 17 11.4804 16.8946 11.2929 16.7071C11.1054 16.5196 11 16.2652 11 16C11 15.7348 11.1054 15.4804 11.2929 15.2929C11.4804 15.1054 11.7348 15 12 15C12.2652 15 12.5196 15.1054 12.7071 15.2929C12.8946 15.4804 13 15.7348 13 16ZM16 17C16.2652 17 16.5196 16.8946 16.7071 16.7071C16.8946 16.5196 17 16.2652 17 16C17 15.7348 16.8946 15.4804 16.7071 15.2929C16.5196 15.1054 16.2652 15 16 15C15.7348 15 15.4804 15.1054 15.2929 15.2929C15.1054 15.4804 15 15.7348 15 16C15 16.2652 15.1054 16.5196 15.2929 16.7071C15.4804 16.8946 15.7348 17 16 17Z" fill="#BF5FE1"/>
</g>
</svg>
