<svg width="28" height="28" viewBox="0 0 28 28" fill="none" xmlns="http://www.w3.org/2000/svg">
<path fill-rule="evenodd" clip-rule="evenodd" d="M27.7666 21.4307L27.7678 21.4342C28.1528 21.9358 28.3371 23.6029 25.6969 23.3066C24.6128 23.2007 23.5472 22.9536 22.5271 22.5716C21.7298 22.2659 20.9672 21.8764 20.2521 21.4097C19.1924 21.8361 18.07 22.086 16.9294 22.1493C16.1155 23.2415 15.0575 24.1282 13.8399 24.7387C12.6222 25.3492 11.2787 25.6666 9.9166 25.6655C8.99755 25.6663 8.08411 25.5222 7.20994 25.2385C6.6966 25.536 6.11327 25.8265 5.46927 26.0703C4.1626 26.5649 3.07877 26.7504 2.29944 26.8053C1.7161 26.8484 1.30427 26.8181 1.10127 26.7948C0.655603 26.7434 0.256603 26.4891 0.0839368 26.0621C0.00978686 25.8774 -0.0158467 25.6767 0.00947561 25.4792C0.0347979 25.2818 0.110233 25.0941 0.228603 24.934C0.522603 24.5315 0.79327 24.1104 1.04994 23.6834C1.54927 22.8504 2.03927 21.9522 2.16294 20.9745C1.61584 19.9301 1.28547 18.786 1.19167 17.6107C1.09786 16.4354 1.24257 15.2533 1.61709 14.1354C1.9916 13.0174 2.58821 11.9867 3.37108 11.1051C4.15394 10.2235 5.10692 9.50922 6.17277 9.00512C6.54594 7.59531 7.20873 6.27869 8.1189 5.13917C9.02907 3.99966 10.1667 3.06224 11.4592 2.38666C12.7517 1.71108 14.1708 1.31216 15.626 1.21532C17.0812 1.11847 18.5406 1.32583 19.9113 1.82418C21.2819 2.32252 22.5337 3.10093 23.5868 4.10978C24.64 5.11863 25.4714 6.33581 26.0281 7.68375C26.5849 9.03168 26.8547 10.4808 26.8203 11.9388C26.786 13.3967 26.4483 14.8315 25.8288 16.1518C25.6071 18.163 26.6186 19.8558 27.7654 21.4307H27.7666ZM8.1666 11.6662C8.16724 10.4356 8.44598 9.22112 8.98199 8.11344C9.518 7.00576 10.2974 6.03352 11.262 5.26939C12.2266 4.50526 13.3514 3.96898 14.5524 3.70065C15.7534 3.43231 16.9995 3.43884 18.1976 3.71976C19.3957 4.00068 20.5149 4.54871 21.4714 5.32292C22.4279 6.09712 23.1971 7.07748 23.7214 8.19072C24.2458 9.30396 24.5118 10.5213 24.4995 11.7518C24.4873 12.9823 24.1971 14.1941 23.6506 15.2967C23.5946 15.4093 23.5572 15.5302 23.5398 15.6548C23.2843 17.4922 23.7148 19.1675 24.5956 20.7762C23.3214 20.4662 22.1205 19.9093 21.0606 19.1371C20.8903 19.0136 20.6899 18.9385 20.4804 18.9196C20.2709 18.9007 20.0602 18.9388 19.8706 19.0298C18.6254 19.6282 17.2488 19.9009 15.8695 19.8224C14.4903 19.744 13.1535 19.317 11.9842 18.5813C10.8149 17.8456 9.8513 16.8253 9.18365 15.616C8.51599 14.4066 8.16607 13.0476 8.1666 11.6662ZM5.83794 11.9625C5.90356 14.2834 6.73632 16.5171 8.20607 18.3146C9.67582 20.1121 11.6997 21.372 13.9614 21.8973C12.8189 22.8276 11.39 23.3346 9.9166 23.3323C9.06494 23.3323 8.25644 23.1678 7.51677 22.8691C7.34362 22.7991 7.15618 22.7716 6.97021 22.7891C6.78425 22.8065 6.60519 22.8684 6.4481 22.9694C5.93594 23.2996 5.3281 23.6286 4.6421 23.8887C4.23645 24.0434 3.82146 24.1724 3.3996 24.2749C3.7881 23.5667 4.18127 22.7233 4.36094 21.93C4.45077 21.5368 4.50094 21.1554 4.52194 20.7972C4.53617 20.5669 4.48177 20.3375 4.3656 20.1381C3.79639 19.1598 3.49762 18.0477 3.49994 16.9159C3.49994 14.921 4.40994 13.1396 5.83794 11.9625Z" fill="#BF5FE1"/>
</svg>
