<svg width="44" height="22" viewBox="0 0 44 22" fill="none" xmlns="http://www.w3.org/2000/svg">
<rect width="44" height="22" rx="11" fill="#5F81FB"/>
<circle cx="32" cy="11" r="9" fill="white"/>
<path d="M11.6353 14.048C11.2406 14.048 10.8939 14.0107 10.5953 13.936C10.3019 13.856 10.0539 13.7147 9.85128 13.512C9.65394 13.304 9.50461 13.0027 9.40328 12.608C9.30728 12.2134 9.25928 11.6987 9.25928 11.064C9.25928 10.424 9.30994 9.90671 9.41128 9.51204C9.51261 9.11204 9.66194 8.80804 9.85928 8.60004C10.0619 8.38671 10.3099 8.24004 10.6033 8.16004C10.9019 8.08004 11.2459 8.04004 11.6353 8.04004C12.0353 8.04004 12.3846 8.08004 12.6833 8.16004C12.9819 8.24004 13.2299 8.38671 13.4273 8.60004C13.6246 8.80804 13.7713 9.11204 13.8673 9.51204C13.9686 9.90671 14.0193 10.424 14.0193 11.064C14.0193 11.6987 13.9686 12.2134 13.8673 12.608C13.7713 13.0027 13.6219 13.304 13.4193 13.512C13.2219 13.7147 12.9739 13.856 12.6753 13.936C12.3819 14.0107 12.0353 14.048 11.6353 14.048ZM11.6353 13.16C11.8966 13.16 12.1153 13.1334 12.2913 13.08C12.4726 13.0214 12.6166 12.92 12.7233 12.776C12.8299 12.6267 12.9073 12.416 12.9553 12.144C13.0033 11.8667 13.0273 11.5067 13.0273 11.064C13.0273 10.5947 13.0006 10.2214 12.9473 9.94404C12.8993 9.66137 12.8219 9.44804 12.7153 9.30404C12.6086 9.15471 12.4673 9.05604 12.2913 9.00804C12.1153 8.95471 11.8966 8.92804 11.6353 8.92804C11.3899 8.92804 11.1793 8.95471 11.0033 9.00804C10.8273 9.05604 10.6833 9.15471 10.5713 9.30404C10.4646 9.44804 10.3846 9.66137 10.3313 9.94404C10.2779 10.2214 10.2513 10.5947 10.2513 11.064C10.2513 11.5067 10.2726 11.8667 10.3153 12.144C10.3633 12.416 10.4406 12.6267 10.5473 12.776C10.6539 12.92 10.7953 13.0214 10.9713 13.08C11.1526 13.1334 11.3739 13.16 11.6353 13.16Z" fill="white"/>
<path d="M15.0378 14V8.09604H15.8298L18.5178 12.312V8.09604H19.5098V14H18.7178L16.0298 9.78404V14H15.0378Z" fill="white"/>
</svg>
