<svg width="44" height="22" viewBox="0 0 44 22" fill="none" xmlns="http://www.w3.org/2000/svg">
<rect width="44" height="22" rx="11" fill="#E1E1E4"/>
<circle cx="12" cy="11" r="9" fill="white"/>
<path d="M26.7759 14.048C26.3812 14.048 26.0346 14.0107 25.7359 13.936C25.4426 13.856 25.1946 13.7147 24.9919 13.512C24.7946 13.304 24.6452 13.0027 24.5439 12.608C24.4479 12.2133 24.3999 11.6987 24.3999 11.064C24.3999 10.424 24.4506 9.90667 24.5519 9.512C24.6532 9.112 24.8026 8.808 24.9999 8.6C25.2026 8.38667 25.4506 8.24 25.7439 8.16C26.0426 8.08 26.3866 8.04 26.7759 8.04C27.1759 8.04 27.5252 8.08 27.8239 8.16C28.1226 8.24 28.3706 8.38667 28.5679 8.6C28.7652 8.808 28.9119 9.112 29.0079 9.512C29.1092 9.90667 29.1599 10.424 29.1599 11.064C29.1599 11.6987 29.1092 12.2133 29.0079 12.608C28.9119 13.0027 28.7626 13.304 28.5599 13.512C28.3626 13.7147 28.1146 13.856 27.8159 13.936C27.5226 14.0107 27.1759 14.048 26.7759 14.048ZM26.7759 13.16C27.0372 13.16 27.2559 13.1333 27.4319 13.08C27.6132 13.0213 27.7572 12.92 27.8639 12.776C27.9706 12.6267 28.0479 12.416 28.0959 12.144C28.1439 11.8667 28.1679 11.5067 28.1679 11.064C28.1679 10.5947 28.1412 10.2213 28.0879 9.944C28.0399 9.66133 27.9626 9.448 27.8559 9.304C27.7492 9.15467 27.6079 9.056 27.4319 9.008C27.2559 8.95467 27.0372 8.928 26.7759 8.928C26.5306 8.928 26.3199 8.95467 26.1439 9.008C25.9679 9.056 25.8239 9.15467 25.7119 9.304C25.6052 9.448 25.5252 9.66133 25.4719 9.944C25.4186 10.2213 25.3919 10.5947 25.3919 11.064C25.3919 11.5067 25.4132 11.8667 25.4559 12.144C25.5039 12.416 25.5812 12.6267 25.6879 12.776C25.7946 12.92 25.9359 13.0213 26.1119 13.08C26.2932 13.1333 26.5146 13.16 26.7759 13.16Z" fill="#939393"/>
<path d="M30.1144 14V9.384C30.1144 9.13333 30.1517 8.92533 30.2264 8.76C30.3011 8.58933 30.3997 8.456 30.5224 8.36C30.6504 8.264 30.7891 8.19733 30.9384 8.16C31.0931 8.11733 31.2451 8.096 31.3944 8.096C31.6024 8.096 31.8477 8.09867 32.1304 8.104C32.4131 8.104 32.7091 8.112 33.0184 8.128C33.3277 8.13867 33.6264 8.15733 33.9144 8.184V9.008H31.6584C31.4824 9.008 31.3437 9.05867 31.2424 9.16C31.1464 9.256 31.0984 9.38933 31.0984 9.56V10.752L33.5544 10.808V11.584L31.0984 11.64V14H30.1144Z" fill="#939393"/>
<path d="M34.6535 14V9.384C34.6535 9.13333 34.6908 8.92533 34.7655 8.76C34.8401 8.58933 34.9388 8.456 35.0615 8.36C35.1895 8.264 35.3281 8.19733 35.4775 8.16C35.6321 8.11733 35.7841 8.096 35.9335 8.096C36.1415 8.096 36.3868 8.09867 36.6695 8.104C36.9521 8.104 37.2481 8.112 37.5575 8.128C37.8668 8.13867 38.1655 8.15733 38.4535 8.184V9.008H36.1975C36.0215 9.008 35.8828 9.05867 35.7815 9.16C35.6855 9.256 35.6375 9.38933 35.6375 9.56V10.752L38.0935 10.808V11.584L35.6375 11.64V14H34.6535Z" fill="#939393"/>
</svg>
