<svg width="34" height="33" viewBox="0 0 34 33" fill="none" xmlns="http://www.w3.org/2000/svg">
<g filter="url(#filter0_d_11124_9524)">
<path fill-rule="evenodd" clip-rule="evenodd" d="M12.3335 9.33336C10.4802 9.33336 9.00016 10.8174 9.00016 12.6227C9.00016 14.6547 10.1762 16.8227 11.9948 18.9467C13.5228 20.7294 15.3788 22.3374 17.0002 23.6347C18.6215 22.3374 20.4775 20.728 22.0055 18.9467C23.8242 16.8227 25.0002 14.6534 25.0002 12.6227C25.0002 10.8174 23.5202 9.33336 21.6668 9.33336C19.8135 9.33336 18.3335 10.8174 18.3335 12.6227C18.3335 12.9763 18.193 13.3155 17.943 13.5655C17.6929 13.8156 17.3538 13.956 17.0002 13.956C16.6465 13.956 16.3074 13.8156 16.0574 13.5655C15.8073 13.3155 15.6668 12.9763 15.6668 12.6227C15.6668 10.8174 14.1868 9.33336 12.3335 9.33336ZM17.0002 8.87869C16.4356 8.18636 15.7238 7.62859 14.9165 7.24595C14.1092 6.86331 13.2268 6.66543 12.3335 6.66669C9.03216 6.66669 6.3335 9.32003 6.3335 12.6227C6.3335 15.624 8.02283 18.4094 9.9695 20.6814C11.9442 22.9867 14.3655 24.972 16.1815 26.3854C16.4156 26.5674 16.7036 26.6663 17.0002 26.6663C17.2967 26.6663 17.5848 26.5674 17.8188 26.3854C19.6348 24.972 22.0562 22.9854 24.0308 20.6814C25.9775 18.4094 27.6668 15.624 27.6668 12.6227C27.6668 9.32003 24.9682 6.66669 21.6668 6.66669C19.7868 6.66669 18.1015 7.52803 17.0002 8.87869Z" fill="white"/>
</g>
<defs>
<filter id="filter0_d_11124_9524" x="-5" y="-6" width="44" height="43.9984" filterUnits="userSpaceOnUse" color-interpolation-filters="sRGB">
<feFlood flood-opacity="0" result="BackgroundImageFix"/>
<feColorMatrix in="SourceAlpha" type="matrix" values="0 0 0 0 0 0 0 0 0 0 0 0 0 0 0 0 0 0 127 0" result="hardAlpha"/>
<feOffset/>
<feGaussianBlur stdDeviation="3"/>
<feComposite in2="hardAlpha" operator="out"/>
<feColorMatrix type="matrix" values="0 0 0 0 0 0 0 0 0 0 0 0 0 0 0 0 0 0 0.6 0"/>
<feBlend mode="normal" in2="BackgroundImageFix" result="effect1_dropShadow_11124_9524"/>
<feBlend mode="normal" in="SourceGraphic" in2="effect1_dropShadow_11124_9524" result="shape"/>
</filter>
</defs>
</svg>
