<svg width="24" height="24" viewBox="0 0 24 24" fill="none" xmlns="http://www.w3.org/2000/svg">
<mask id="path-1-outside-1_11400_1992" maskUnits="userSpaceOnUse" x="3" y="3.49951" width="18" height="17" fill="white">
<rect fill="white" x="3" y="3.49951" width="18" height="17"/>
<path fill-rule="evenodd" clip-rule="evenodd" d="M10.4373 4.93396C11.0427 5.22094 11.5766 5.63927 12 6.15852C12.826 5.14552 14.09 4.49952 15.5 4.49952C17.976 4.49952 20 6.48952 20 8.96652C20 11.2175 18.733 13.3065 17.273 15.0105C15.792 16.7385 13.976 18.2285 12.614 19.2885C12.4385 19.4251 12.2224 19.4992 12 19.4992C11.7776 19.4992 11.5615 19.4251 11.386 19.2885C10.024 18.2285 8.208 16.7395 6.727 15.0105C5.267 13.3065 4 11.2175 4 8.96652C4 6.48952 6.024 4.49952 8.5 4.49952C9.17001 4.49857 9.83181 4.64698 10.4373 4.93396Z"/>
</mask>
<path fill-rule="evenodd" clip-rule="evenodd" d="M10.4373 4.93396C11.0427 5.22094 11.5766 5.63927 12 6.15852C12.826 5.14552 14.09 4.49952 15.5 4.49952C17.976 4.49952 20 6.48952 20 8.96652C20 11.2175 18.733 13.3065 17.273 15.0105C15.792 16.7385 13.976 18.2285 12.614 19.2885C12.4385 19.4251 12.2224 19.4992 12 19.4992C11.7776 19.4992 11.5615 19.4251 11.386 19.2885C10.024 18.2285 8.208 16.7395 6.727 15.0105C5.267 13.3065 4 11.2175 4 8.96652C4 6.48952 6.024 4.49952 8.5 4.49952C9.17001 4.49857 9.83181 4.64698 10.4373 4.93396Z" fill="white"/>
<path d="M12 6.15852L11.225 6.7905L12 7.74088L12.775 6.79046L12 6.15852ZM10.4373 4.93396L10.8656 4.03033L10.4373 4.93396ZM17.273 15.0105L18.0323 15.6613L18.0324 15.6612L17.273 15.0105ZM12.614 19.2885L13.228 20.0778L13.2282 20.0777L12.614 19.2885ZM11.386 19.2885L10.7718 20.0777L10.772 20.0778L11.386 19.2885ZM6.727 15.0105L7.48647 14.36L7.48638 14.3599L6.727 15.0105ZM8.5 4.49952V5.49952L8.50142 5.49952L8.5 4.49952ZM12.775 5.52653C12.2576 4.8921 11.6053 4.38097 10.8656 4.03033L10.0089 5.83759C10.4801 6.06091 10.8955 6.38644 11.225 6.7905L12.775 5.52653ZM15.5 3.49952C13.7788 3.49952 12.2341 4.28904 11.225 5.52657L12.775 6.79046C13.4179 6.00199 14.4012 5.49952 15.5 5.49952V3.49952ZM21 8.96652C21 5.92752 18.5185 3.49952 15.5 3.49952V5.49952C17.4335 5.49952 19 7.05151 19 8.96652H21ZM18.0324 15.6612C19.5402 13.9014 21 11.5812 21 8.96652H19C19 10.8538 17.9258 12.7116 16.5136 14.3599L18.0324 15.6612ZM13.2282 20.0777C14.601 19.0093 16.483 17.469 18.0323 15.6613L16.5137 14.3598C15.101 16.0081 13.351 17.4477 11.9998 18.4994L13.2282 20.0777ZM12 20.4992C12.4448 20.4992 12.8769 20.3509 13.228 20.0778L12 18.4992L12 18.4992V20.4992ZM10.772 20.0778C11.1231 20.3509 11.5552 20.4992 12 20.4992V18.4992V18.4992L10.772 20.0778ZM5.96753 15.6611C7.517 17.47 9.39929 19.0095 10.7718 20.0777L12.0002 18.4994C10.6487 17.4475 8.899 16.009 7.48647 14.36L5.96753 15.6611ZM3 8.96652C3 11.5812 4.45985 13.9014 5.96762 15.6612L7.48638 14.3599C6.07415 12.7116 5 10.8538 5 8.96652H3ZM8.5 3.49952C5.48147 3.49952 3 5.92752 3 8.96652H5C5 7.05151 6.56653 5.49952 8.5 5.49952V3.49952ZM10.8656 4.03033C10.1258 3.67969 9.31722 3.49836 8.49858 3.49952L8.50142 5.49952C9.0228 5.49878 9.5378 5.61427 10.0089 5.83759L10.8656 4.03033Z" fill="white" mask="url(#path-1-outside-1_11400_1992)"/>
</svg>
