<svg width="41" height="41" viewBox="0 0 41 41" fill="none" xmlns="http://www.w3.org/2000/svg">
<path fill-rule="evenodd" clip-rule="evenodd" d="M13.4084 8.20106C17.7284 7.5888 22.9384 7.5888 27.2584 8.20106C31.1834 8.75826 34.2251 11.5143 34.8051 14.4838C35.5101 18.079 35.5101 22.4298 34.8051 26.025C34.2234 28.9945 31.1834 31.7505 27.2584 32.3078C22.9384 32.92 17.7267 32.92 13.4084 32.3078C9.4834 31.7505 6.4434 28.9945 5.86174 26.025C5.15674 22.4298 5.15674 18.079 5.86174 14.4838C6.4434 11.5143 9.4834 8.75826 13.4084 8.20106V8.20106ZM27.7251 4.89785C23.0967 4.24222 17.5701 4.24222 12.9417 4.89785C7.91674 5.61021 3.50007 9.19869 2.59174 13.8432C1.8034 17.8621 1.8034 22.6467 2.59174 26.6656C3.50007 31.3101 7.91674 34.8986 12.9417 35.611C17.5701 36.2666 23.0967 36.2666 27.7251 35.611C32.7501 34.8986 37.1667 31.3101 38.0751 26.6656C38.8634 22.6467 38.8634 17.8621 38.0751 13.8432C37.1667 9.19869 32.7501 5.61021 27.7251 4.89785V4.89785ZM17.9251 12.1933C17.6741 12.0256 17.3823 11.9294 17.0809 11.9147C16.7795 11.9 16.4798 11.9676 16.2138 12.1101C15.9477 12.2525 15.7253 12.4647 15.5703 12.7238C15.4152 12.9829 15.3334 13.2792 15.3334 13.5813V26.9275C15.3334 27.2296 15.4152 27.5259 15.5703 27.785C15.7253 28.0442 15.9477 28.2563 16.2138 28.3988C16.4798 28.5412 16.7795 28.6088 17.0809 28.5941C17.3823 28.5795 17.6741 28.4832 17.9251 28.3155L27.9251 21.6424C28.1533 21.4901 28.3405 21.2837 28.4699 21.0415C28.5994 20.7994 28.6671 20.529 28.6671 20.2544C28.6671 19.9798 28.5994 19.7094 28.4699 19.4673C28.3405 19.2251 28.1533 19.0187 27.9251 18.8664L17.9251 12.1933ZM23.9951 20.2544L18.6667 23.8112V16.6993L23.9951 20.2544Z" fill="white"/>
</svg>
