<svg width="24" height="24" viewBox="0 0 24 24" fill="none" xmlns="http://www.w3.org/2000/svg">
<g id="Star">
<path id="Vector" fill-rule="evenodd" clip-rule="evenodd" d="M10.8534 4.13103C11.2884 3.12803 12.7124 3.12803 13.1474 4.13103L15.1274 8.69703L20.0814 9.16903C21.1694 9.27203 21.6094 10.626 20.7894 11.35L17.0594 14.644L18.1414 19.501C18.3794 20.569 17.2274 21.405 16.2854 20.849L12.0004 18.32L7.71537 20.85C6.77337 21.406 5.62137 20.57 5.85937 19.502L6.94137 14.645L3.21137 11.351C2.39137 10.627 2.83137 9.27303 3.92037 9.17003L8.87337 8.69803L10.8534 4.13203V4.13103ZM12.0004 6.51403L10.4734 10.034L10.2394 10.576L9.65137 10.632L5.83137 10.996L8.70737 13.536L9.15037 13.926L9.02237 14.502L8.18737 18.248L11.4924 16.297L12.0004 15.997L12.5084 16.297L15.8134 18.247L14.9784 14.502L14.8504 13.926L15.2934 13.536L18.1694 10.996L14.3494 10.632L13.7614 10.576L13.5274 10.034L12.0004 6.51403Z" fill="#BF5FE1"/>
</g>
</svg>
